<?xml version="1.0" encoding="UTF-8"?>
<svg version="1.1" viewBox="0 0 2048 2048" width="512" height="512" xmlns="http://www.w3.org/2000/svg">
<path transform="translate(410,292)" d="m0 0h446l22 1 11 3 11 6 10 9 9 13 4 10 1 4 1 13v52h106l16 2 12 5 9 6 8 8 8 13 4 11 1 9v57h670l21 1 27 4 20 6 18 8 16 8 12 8 13 10 13 12 11 11 13 17 9 15 8 16 6 15 4 13 4 17 2 15 1 22v36l-2 29-5 22-7 19-10 19-11 15-12 14-15 13-14 9-23 12-23 7-26 4-14 2-4 4-1 7 8 26 32 96 14 43 22 67 11 28 10 19 8 12 10 14 9 10 7 8 11 13 10 15 8 16 7 21 4 22 1 20-3 25-8 36-19 82-14 61-4 13-6 9-6 5-7 2-161 1-1 7-9 27-8 16-9 17-16 21-8 10-8 7-13 13-17 12-14 9-16 8-19 8-17 5-18 4-26 3h-24l-21-2-26-6-18-6-26-12-18-11-16-12-7-7-8-7-10-10-13-17-9-13-14-27-6-16-6-20-1-1h-695l-10 30-7 16-12 22-10 13-8 11-11 12-8 7-12 11-11 7-15 10-25 12-17 6-28 7-26 3h-25l-25-3-29-7-19-8-16-7-19-12-14-10-13-12-16-16-12-16-7-10-10-18-9-20-9-28-85-1-10-4-7-7-5-11-1-5v-933l2-18 5-17 5-12 7-12 8-11 5-6 8-7 9-8 15-9 15-6 15-4h4v-53l1-13 4-13 9-14 4-5 10-8 11-5 8-2 10-1h108v-61l3-12 6-11 9-11 8-7 12-6 7-2zm-2 57-2 1v53l458 1 3-1v-54zm-166 111v54h790v-53l-1-1zm-41 112-16 2-9 4-11 7-11 11-6 11-4 13-1 906 1 4h45l4-30 5-21 6-18 9-20 9-17 9-13 10-13 5-5v-2l3-1 7-8 12-10 16-12 19-11 23-11 24-8 26-5 25-2 26 1 25 4 24 7 24 10 17 9 15 10 18 14 8 8h2l2 4 9 9 12 16 8 13 10 19 8 20 6 19 4 21 2 19 1 4h138v-315l-518-1-11-4-7-6-5-8-2-12v-279l3-9 6-8 12-6 14-1h798l17 1 8 3 8 7 5 10 1 628h88l1-6v-458l1-108 2-16 6-19 8-16 8-11 11-12 14-11 16-9 18-6 13-2 15-1 516-1 15-2 18-6 16-8 10-8 8-7 10-13 8-15 6-18 2-15v-59l-2-19-7-24-10-21-7-11-12-14-10-10-12-9-22-12-20-6-17-3-10-1-25-1zm1089 339-17 2-16 8-11 11-6 10-4 11-1 6v571h72l4-30 4-18 6-20 9-20 10-18 11-16 9-11 14-15 9-9 14-11 15-10 27-14 22-8 26-6 13-2 17-1h13l24 2 25 5 24 8 25 12 18 11 13 10 12 11 16 16 11 14 10 15 7 12 9 19 8 24 5 24 3 26h124l3-7 19-82 13-56 5-24v-25l-4-16-8-16-7-10-11-14-11-13-11-14-10-15-8-14-5-8-299-1-10-3-6-4-4-5-8-17-17-42-36-88-13-32-7-21-3-18v-24l4-20 5-15 6-13v-2zm223 0-4 4-10 13-7 10-6 12-3 11-1 6v12l3 15 8 21 16 39 20 49 18 44 5 12h254l-3-11-12-36-18-55-16-49-12-36-10-32-2-10-1-19zm-1239 27v219l213 1 1-1v-218l-5-1zm272 0-1 200v19l214 1 1-1v-218l-4-1zm272 0-1 4v588l211 1 4-1v-590l-2-2zm-427 442-25 4-24 8-19 10-12 9-10 8-10 9-7 8-9 11-7 11-8 15-6 17-5 18-3 25v11l3 28 8 26 13 25 9 13 8 9 7 8 14 12 13 9 24 13 27 8 14 2 12 1h14l27-3 26-8 25-13 11-8 17-14 9-10 7-9v-2h2l9-16 8-16 8-24 3-21 1-11v-9l-3-26-9-30-12-24-8-11-12-14-8-8-9-7-13-10-18-10-12-5-25-7-18-2zm1119 0-21 3-24 7-16 8-12 7-11 9-13 10-11 12-11 14-9 16-6 13-7 21-2 8-3 27 1 17 3 23 9 27 13 24 7 9 14 17 14 12 14 10 22 12 15 5 13 4 27 3h14l21-2 16-4 21-7 22-12 13-10 14-12 9-10 10-13 8-14 8-16 8-26 3-27v-12l-2-21-6-23-7-18-10-19-11-14-11-12-11-10-16-12-24-13-26-8-13-2-9-1z"/>
<path transform="translate(1511,1440)" d="m0 0h26l14 3 15 6 15 9 11 9 8 8 9 13 7 14 5 17 2 13v13l-3 19-6 16-9 17-12 13-12 10-14 8-13 5-15 4-18 2-20-3-17-6-18-10-14-12-9-10-10-18-6-16-2-10-1-11v-9l2-15 5-16 8-16 6-9 11-12 16-12 16-8 16-5zm4 58-10 3-11 8-8 11-4 13v13l3 10 6 10 8 7 11 6 8 2h11l11-3 14-10 8-11 3-13v-14l-4-11-8-11-11-7-9-3z"/>
<path transform="translate(406,1439)" d="m0 0 19 2 18 6 17 9 14 11 7 7 8 11 9 17 5 17 1 7v26l-2 11-5 15-9 17-11 13-10 9-13 8-12 6-15 5-20 3-19-2-17-5-16-8-11-7-12-11-9-11-9-16-5-15-3-20v-11l3-19 7-19 9-15 11-13 16-12 15-8 18-6zm-10 59-11 4-9 7-6 7-5 11-1 4v17l5 13 9 10 10 6 8 3 4 1h11l10-3 13-8 8-10 3-7 2-9v-13l-4-11-6-9-8-7-10-5-5-1z"/>
</svg>
